<svg width="16" height="16" viewBox="0 0 16 16" fill="none" xmlns="http://www.w3.org/2000/svg">
<path fill-rule="evenodd" clip-rule="evenodd" d="M8.62348 15.0819L8.61472 15.0835L8.5582 15.1113L8.54228 15.1145L8.53114 15.1113L8.47462 15.0835C8.46613 15.0808 8.45976 15.0821 8.45551 15.0875L8.45233 15.0954L8.43879 15.4361L8.44277 15.4521L8.45073 15.4624L8.53353 15.5213L8.54547 15.5245L8.55502 15.5213L8.63781 15.4624L8.64736 15.4497L8.65055 15.4361L8.63701 15.0962C8.63489 15.0877 8.63038 15.0829 8.62348 15.0819ZM8.83444 14.9919L8.82409 14.9935L8.67682 15.0676L8.66886 15.0755L8.66647 15.0843L8.6808 15.4266L8.68478 15.4361L8.69115 15.4417L8.85116 15.5157C8.86124 15.5184 8.86894 15.5163 8.87424 15.5094L8.87743 15.4982L8.85036 15.0094C8.84771 14.9999 8.8424 14.994 8.83444 14.9919ZM8.26525 14.9935C8.26174 14.9914 8.25755 14.9907 8.25354 14.9916C8.24954 14.9925 8.24603 14.9949 8.24376 14.9983L8.23898 15.0094L8.21191 15.4982C8.21244 15.5078 8.21696 15.5141 8.22545 15.5173L8.23739 15.5157L8.3974 15.4417L8.40536 15.4353L8.40854 15.4266L8.42208 15.0843L8.41969 15.0747L8.41173 15.0668L8.26525 14.9935Z" fill="white"/>
<path fill-rule="evenodd" clip-rule="evenodd" d="M14.3427 0.0935102C14.5394 0.0107119 14.7547 -0.0178447 14.9662 0.0108124C15.1777 0.0394695 15.3777 0.124293 15.5453 0.256454C15.7129 0.388614 15.842 0.563281 15.9192 0.762273C15.9964 0.961266 16.0188 1.17731 15.9842 1.38792L14.1787 12.3394C14.0035 13.3958 12.8445 14.0016 11.8757 13.4754C11.0653 13.0352 9.8616 12.3569 8.77895 11.6492C8.23763 11.295 6.57942 10.1606 6.78321 9.35338C6.95834 8.66319 9.74458 6.06959 11.3367 4.52761C11.9616 3.9218 11.6766 3.57233 10.9387 4.12958C9.10614 5.51314 6.16387 7.61715 5.19107 8.20943C4.33291 8.73165 3.88552 8.82081 3.35056 8.73165C2.37458 8.56925 1.46945 8.31769 0.730701 8.01121C-0.267568 7.59725 -0.219008 6.22483 0.729905 5.8252L14.3427 0.0935102Z" fill="white"/>
</svg>
